<?xml version="1.0" standalone="no"?>
<!DOCTYPE svg PUBLIC "-//W3C//DTD SVG 20010904//EN"
 "http://www.w3.org/TR/2001/REC-SVG-20010904/DTD/svg10.dtd">
<svg version="1.0" xmlns="http://www.w3.org/2000/svg"
 width="1920.000000pt" height="1920.000000pt" viewBox="0 0 1920.000000 1920.000000"
 preserveAspectRatio="xMidYMid meet">
<metadata>
Created by potrace 1.11, written by Peter Selinger 2001-2013
</metadata>
<g transform="translate(0.000000,1920.000000) scale(0.100000,-0.100000)"
fill="#000000" stroke="none">
<path d="M9329 13986 c-2 -2 -53 -7 -114 -11 -60 -3 -123 -8 -140 -10 -16 -3
-57 -7 -90 -10 -33 -3 -67 -8 -75 -10 -8 -3 -39 -7 -69 -10 -29 -3 -57 -7 -60
-10 -4 -2 -27 -6 -52 -9 -53 -7 -67 -10 -189 -37 -197 -44 -401 -100 -505
-139 -27 -11 -63 -22 -79 -26 -16 -4 -41 -13 -55 -20 -14 -8 -33 -14 -41 -14
-9 0 -20 -4 -25 -9 -6 -4 -32 -17 -60 -27 -27 -10 -61 -24 -75 -31 -14 -7 -28
-13 -32 -13 -3 0 -41 -17 -85 -37 -43 -20 -84 -38 -91 -39 -7 -1 -18 -7 -25
-12 -7 -5 -64 -37 -127 -70 -131 -68 -179 -94 -194 -105 -13 -9 -182 -114
-211 -131 -19 -11 -30 -19 -59 -43 -8 -7 -19 -13 -24 -13 -5 0 -21 -11 -36
-25 -14 -13 -30 -25 -34 -27 -4 -1 -11 -6 -17 -10 -5 -5 -28 -22 -50 -38 -57
-42 -53 -39 -135 -105 -41 -33 -83 -68 -92 -79 -10 -10 -18 -17 -18 -14 0 9
-136 -119 -267 -250 -68 -67 -123 -127 -123 -132 0 -6 -4 -10 -9 -10 -4 0 -35
-32 -67 -71 -33 -39 -69 -83 -82 -97 -39 -45 -165 -213 -207 -277 -22 -33 -42
-62 -45 -65 -14 -14 -50 -70 -50 -79 0 -5 -4 -11 -8 -13 -20 -8 -243 -422
-301 -558 -66 -155 -98 -239 -147 -387 -50 -151 -115 -392 -128 -473 -3 -19
-8 -46 -11 -60 -12 -58 -35 -199 -41 -255 -3 -33 -8 -67 -9 -75 -20 -104 -28
-638 -12 -795 9 -94 17 -160 22 -195 2 -14 7 -50 10 -80 3 -30 12 -82 20 -115
8 -34 16 -80 19 -103 3 -23 7 -46 10 -51 3 -5 8 -26 12 -47 13 -90 131 -476
178 -589 7 -16 28 -66 46 -110 49 -117 135 -297 180 -376 21 -38 37 -69 34
-69 -3 0 4 -10 16 -22 11 -12 20 -27 20 -34 0 -7 7 -19 15 -27 8 -8 16 -21 17
-28 2 -7 7 -18 11 -24 4 -5 39 -57 77 -115 38 -58 77 -116 87 -130 50 -67 178
-237 190 -250 7 -8 24 -27 36 -41 106 -124 397 -429 397 -415 0 2 20 -15 44
-38 72 -69 105 -96 116 -96 5 0 10 -4 10 -9 0 -4 33 -33 73 -64 39 -31 82 -65
94 -76 12 -12 26 -21 31 -21 5 0 17 -9 27 -20 10 -11 24 -20 31 -20 7 0 14 -4
16 -9 3 -9 273 -191 283 -191 2 0 28 -15 57 -33 29 -19 98 -58 153 -87 55 -29
105 -57 111 -61 6 -5 14 -6 17 -2 4 3 7 1 7 -5 0 -7 4 -12 9 -12 5 0 53 -21
108 -46 89 -42 335 -144 347 -144 3 0 17 -5 33 -12 15 -6 33 -12 38 -14 6 -1
35 -11 65 -22 55 -20 159 -53 215 -67 43 -12 45 -12 48 -15 1 -1 9 -3 17 -5 8
-1 42 -10 75 -18 33 -9 71 -18 85 -21 14 -3 55 -12 91 -20 36 -8 81 -17 100
-20 20 -3 42 -7 50 -10 8 -3 32 -7 54 -10 22 -3 51 -8 65 -10 14 -3 48 -7 75
-11 28 -3 64 -8 80 -11 17 -2 53 -6 80 -8 28 -3 88 -8 135 -13 169 -15 735 -8
862 12 13 2 48 6 78 10 112 12 198 24 220 30 8 2 32 6 53 9 81 12 291 58 394
87 59 16 115 31 123 33 43 11 256 82 332 112 49 19 90 34 93 34 3 0 24 9 48
19 23 11 80 36 127 57 107 47 171 78 290 141 154 81 323 182 328 195 2 4 10 8
18 8 8 0 14 5 14 10 0 6 5 10 10 10 13 0 188 119 216 148 7 6 16 12 21 12 5 0
16 8 25 18 15 17 35 32 78 62 12 8 38 30 59 48 20 18 49 43 64 55 87 68 378
352 445 435 19 22 44 52 55 65 12 13 38 44 59 68 20 24 48 58 62 74 14 17 29
38 32 48 3 9 9 17 13 17 4 0 23 24 41 53 19 28 37 54 41 57 10 8 140 205 186
285 84 143 95 163 162 300 63 128 103 216 101 223 0 1 7 16 15 32 8 16 15 32
15 35 0 3 6 18 14 33 16 32 134 377 139 407 1 11 6 26 10 33 5 6 6 12 2 12 -3
0 1 15 9 34 8 19 12 36 10 39 -2 2 2 23 10 45 9 23 13 42 11 42 -2 0 1 15 6
33 5 17 12 46 14 62 3 17 8 44 12 60 3 17 7 37 8 45 2 14 13 79 21 124 2 10 6
41 9 70 4 28 8 65 10 81 26 215 27 791 1 921 -2 12 -7 45 -11 75 -3 30 -10 77
-15 104 -5 28 -12 70 -15 95 -3 25 -8 53 -11 62 -6 22 -14 56 -19 93 -3 17
-19 82 -36 145 -16 63 -34 131 -39 150 -5 19 -28 87 -50 150 -22 63 -42 122
-44 130 -6 22 -73 187 -104 255 -45 101 -183 369 -198 386 -8 9 -11 19 -7 22
3 4 2 7 -3 7 -5 0 -18 17 -29 38 -19 35 -175 275 -193 298 -5 6 -27 35 -48 65
-21 30 -43 59 -49 65 -5 6 -21 25 -35 43 -14 18 -32 41 -42 52 -9 11 -31 38
-49 61 -116 142 -371 396 -525 523 -27 22 -55 47 -64 55 -8 8 -31 26 -50 40
-19 13 -37 27 -40 30 -8 9 -121 94 -151 112 -14 9 -34 24 -43 33 -9 9 -16 13
-16 8 0 -4 -4 -3 -8 4 -4 7 -66 48 -137 92 -72 45 -134 84 -140 88 -5 5 -39
24 -75 42 -99 52 -104 55 -124 71 -10 8 -20 14 -22 12 -2 -1 -32 12 -67 30
-34 18 -64 32 -67 33 -3 0 -30 12 -60 26 -30 15 -84 39 -120 54 -36 15 -73 31
-84 37 -10 5 -26 11 -35 13 -9 2 -45 15 -81 30 -124 49 -486 159 -594 181 -11
2 -63 12 -115 23 -146 30 -285 53 -392 65 -92 11 -136 16 -189 21 -68 7 -634
17 -641 11z"/>
</g>
</svg>
